# Blender v2.91.0 OBJ File: 'Medicijn_Ritalindoosje.blend'
# www.blender.org
mtllib Medicijn_Ritalindoosje.mtl
o Cube
v 0.164937 0.278081 -0.165743
v 0.167779 -0.098149 -0.166875
v 0.161371 0.275363 0.728950
v 0.164213 -0.100867 0.727818
v -0.045722 0.276492 -0.166588
v -0.042880 -0.099738 -0.167719
v -0.049288 0.273774 0.728105
v -0.046447 -0.102456 0.726974
vt 0.780974 0.958623
vt 0.157897 0.953770
vt 0.172507 0.041946
vt 0.871520 0.047735
vt 0.265093 0.050769
vt 0.659744 0.074565
vt 0.666942 0.900195
vt 0.257809 0.919687
vt 0.884072 0.766972
vt 0.103933 0.771274
vt 0.139436 0.149585
vt 0.867986 0.187655
vt 0.123165 0.196030
vt 0.867434 0.164549
vt 0.903703 0.850698
vt 0.106192 0.879863
vt 0.034153 0.803058
vt 0.063662 0.242756
vt 0.917397 0.204664
vt 0.954638 0.782197
vt 0.104441 0.767341
vt 0.118931 0.244027
vt 0.831829 0.249894
vt 0.850453 0.732868
vn 1.0000 0.0075 0.0040
vn -1.0000 -0.0075 -0.0040
vn -0.0040 -0.0030 1.0000
vn 0.0040 0.0030 -1.0000
vn -0.0076 1.0000 0.0030
vn 0.0076 -1.0000 -0.0030
usemtl Boven_View
s off
f 2/1/1 1/2/1 3/3/1 4/4/1
usemtl Achterview
f 8/5/2 7/6/2 5/7/2 6/8/2
usemtl Kortezijde1
f 4/9/3 3/10/3 7/11/3 8/12/3
usemtl kortezijde2
f 6/13/4 5/14/4 1/15/4 2/16/4
usemtl onderkant
f 1/17/5 5/18/5 7/19/5 3/20/5
usemtl topview
f 6/21/6 2/22/6 4/23/6 8/24/6
